# xmcd CD database file
#
# Track frame offsets:
#	150
#	58187
#	85625
#	146840
#	170602
#	191400
#	210412
#	233410
#
# Disc length: 3423 seconds
#
# Revision: 2
# Processed by: cddbd v1.5.2PL0 Copyright (c) Steve Scherf et al.
# Submitted via: CDex 1.70beta2
#
DISCID=650d5d08
DTITLE=Prism - Prism Super Collection
DYEAR=1992
DGENRE=Pop
TTITLE0=##
TTITLE1=Morning Light
TTITLE2=Beneath The Sea
TTITLE3=Daydream
TTITLE4=Spanish Soul
TTITLE5=Sunset Cruise
TTITLE6=Prism
TTITLE7=Love Me
EXTD=YEAR: 1992
EXTT0=
EXTT1=
EXTT2=
EXTT3=
EXTT4=
EXTT5=
EXTT6=
EXTT7=
PLAYORDER=
